<mxfile host="Electron" agent="Mozilla/5.0 (Macintosh; Intel Mac OS X 10_15_7) AppleWebKit/537.36 (KHTML, like Gecko) draw.io/27.0.9 Chrome/134.0.6998.205 Electron/35.4.0 Safari/537.36" version="27.0.9">
  <diagram name="Page-1" id="GMAHROKjQBxpr4yg893g">
    <mxGraphModel dx="2182" dy="903" grid="1" gridSize="10" guides="1" tooltips="1" connect="1" arrows="1" fold="1" page="1" pageScale="1" pageWidth="1169" pageHeight="827" math="0" shadow="0">
      <root>
        <mxCell id="0" />
        <mxCell id="1" parent="0" />
        <mxCell id="2SEQ9JCuGxX66qTga9O--121" style="edgeStyle=orthogonalEdgeStyle;rounded=1;orthogonalLoop=1;jettySize=auto;html=1;exitX=0.5;exitY=1;exitDx=0;exitDy=0;startArrow=classic;startFill=1;" edge="1" parent="1" source="2SEQ9JCuGxX66qTga9O--86" target="2SEQ9JCuGxX66qTga9O--9">
          <mxGeometry relative="1" as="geometry">
            <Array as="points">
              <mxPoint x="560" y="440" />
              <mxPoint x="517" y="440" />
            </Array>
          </mxGeometry>
        </mxCell>
        <mxCell id="2SEQ9JCuGxX66qTga9O--86" value="" style="rounded=0;whiteSpace=wrap;html=1;" vertex="1" parent="1">
          <mxGeometry x="340" y="190" width="440" height="220" as="geometry" />
        </mxCell>
        <mxCell id="2SEQ9JCuGxX66qTga9O--18" value="" style="edgeStyle=orthogonalEdgeStyle;rounded=1;orthogonalLoop=1;jettySize=auto;html=1;startArrow=classic;startFill=1;" edge="1" parent="1" source="2SEQ9JCuGxX66qTga9O--5" target="2SEQ9JCuGxX66qTga9O--16">
          <mxGeometry relative="1" as="geometry" />
        </mxCell>
        <mxCell id="2SEQ9JCuGxX66qTga9O--5" value="FarmBase&lt;div&gt;DB&lt;/div&gt;" style="shape=datastore;whiteSpace=wrap;html=1;rounded=1;" vertex="1" parent="1">
          <mxGeometry x="850" y="50.06" width="80" height="70" as="geometry" />
        </mxCell>
        <mxCell id="2SEQ9JCuGxX66qTga9O--90" style="edgeStyle=orthogonalEdgeStyle;rounded=1;orthogonalLoop=1;jettySize=auto;html=1;exitX=0.5;exitY=0;exitDx=0;exitDy=0;exitPerimeter=0;" edge="1" parent="1" source="2SEQ9JCuGxX66qTga9O--6">
          <mxGeometry relative="1" as="geometry">
            <mxPoint x="389.92592592592564" y="110.00000000000011" as="targetPoint" />
          </mxGeometry>
        </mxCell>
        <mxCell id="2SEQ9JCuGxX66qTga9O--6" value="Crop&lt;div&gt;Suitability&lt;/div&gt;" style="aspect=fixed;sketch=0;html=1;dashed=0;whitespace=wrap;verticalLabelPosition=bottom;verticalAlign=top;points=[[0.005,0.63,0],[0.1,0.2,0],[0.9,0.2,0],[0.5,0,0],[0.995,0.63,0],[0.72,0.99,0],[0.5,1,0],[0.28,0.99,0]];shape=mxgraph.kubernetes.icon2;prIcon=api;rounded=1;" vertex="1" parent="1">
          <mxGeometry x="370" y="240" width="39.58" height="38" as="geometry" />
        </mxCell>
        <mxCell id="2SEQ9JCuGxX66qTga9O--9" value="" style="dashed=0;outlineConnect=0;html=1;align=center;labelPosition=center;verticalLabelPosition=bottom;verticalAlign=top;shape=mxgraph.weblogos.whatsapp;fillColor=#008041;strokeColor=#dddddd;rounded=1;" vertex="1" parent="1">
          <mxGeometry x="480" y="500" width="74.4" height="74.8" as="geometry" />
        </mxCell>
        <mxCell id="2SEQ9JCuGxX66qTga9O--16" value="FarmBase API" style="sketch=0;verticalLabelPosition=bottom;sketch=0;aspect=fixed;html=1;verticalAlign=top;strokeColor=none;fillColor=#000000;align=center;outlineConnect=0;pointerEvents=1;shape=mxgraph.citrix2.citrix_cloud_api;rounded=1;" vertex="1" parent="1">
          <mxGeometry x="850" y="151.03" width="80" height="59.94" as="geometry" />
        </mxCell>
        <mxCell id="2SEQ9JCuGxX66qTga9O--104" style="edgeStyle=orthogonalEdgeStyle;rounded=1;orthogonalLoop=1;jettySize=auto;html=1;exitX=0.5;exitY=0;exitDx=0;exitDy=0;exitPerimeter=0;" edge="1" parent="1" source="2SEQ9JCuGxX66qTga9O--19" target="2SEQ9JCuGxX66qTga9O--16">
          <mxGeometry relative="1" as="geometry">
            <Array as="points">
              <mxPoint x="550" y="310" />
              <mxPoint x="890" y="310" />
            </Array>
          </mxGeometry>
        </mxCell>
        <mxCell id="2SEQ9JCuGxX66qTga9O--19" value="&lt;div&gt;Record&lt;/div&gt;&lt;div&gt;Keeping&lt;/div&gt;" style="aspect=fixed;sketch=0;html=1;dashed=0;whitespace=wrap;verticalLabelPosition=bottom;verticalAlign=top;points=[[0.005,0.63,0],[0.1,0.2,0],[0.9,0.2,0],[0.5,0,0],[0.995,0.63,0],[0.72,0.99,0],[0.5,1,0],[0.28,0.99,0]];shape=mxgraph.kubernetes.icon2;prIcon=api;rounded=1;" vertex="1" parent="1">
          <mxGeometry x="530.4200000000001" y="320" width="39.58" height="38" as="geometry" />
        </mxCell>
        <mxCell id="2SEQ9JCuGxX66qTga9O--91" style="edgeStyle=orthogonalEdgeStyle;rounded=1;orthogonalLoop=1;jettySize=auto;html=1;exitX=0.5;exitY=0;exitDx=0;exitDy=0;exitPerimeter=0;entryX=0.5;entryY=1;entryDx=0;entryDy=0;" edge="1" parent="1" source="2SEQ9JCuGxX66qTga9O--20" target="2SEQ9JCuGxX66qTga9O--78">
          <mxGeometry relative="1" as="geometry" />
        </mxCell>
        <mxCell id="2SEQ9JCuGxX66qTga9O--20" value="Soil&lt;div&gt;Advisory&lt;/div&gt;" style="aspect=fixed;sketch=0;html=1;dashed=0;whitespace=wrap;verticalLabelPosition=bottom;verticalAlign=top;points=[[0.005,0.63,0],[0.1,0.2,0],[0.9,0.2,0],[0.5,0,0],[0.995,0.63,0],[0.72,0.99,0],[0.5,1,0],[0.28,0.99,0]];shape=mxgraph.kubernetes.icon2;prIcon=api;rounded=1;" vertex="1" parent="1">
          <mxGeometry x="450" y="221.94" width="39.58" height="38" as="geometry" />
        </mxCell>
        <mxCell id="2SEQ9JCuGxX66qTga9O--92" style="edgeStyle=orthogonalEdgeStyle;rounded=1;orthogonalLoop=1;jettySize=auto;html=1;exitX=0.5;exitY=0;exitDx=0;exitDy=0;exitPerimeter=0;" edge="1" parent="1" source="2SEQ9JCuGxX66qTga9O--21" target="2SEQ9JCuGxX66qTga9O--79">
          <mxGeometry relative="1" as="geometry" />
        </mxCell>
        <mxCell id="2SEQ9JCuGxX66qTga9O--21" value="Market&lt;div&gt;Prices&lt;/div&gt;" style="aspect=fixed;sketch=0;html=1;dashed=0;whitespace=wrap;verticalLabelPosition=bottom;verticalAlign=top;points=[[0.005,0.63,0],[0.1,0.2,0],[0.9,0.2,0],[0.5,0,0],[0.995,0.63,0],[0.72,0.99,0],[0.5,1,0],[0.28,0.99,0]];shape=mxgraph.kubernetes.icon2;prIcon=api;rounded=1;" vertex="1" parent="1">
          <mxGeometry x="530.42" y="210.97" width="39.58" height="38" as="geometry" />
        </mxCell>
        <mxCell id="2SEQ9JCuGxX66qTga9O--102" style="edgeStyle=orthogonalEdgeStyle;rounded=1;orthogonalLoop=1;jettySize=auto;html=1;exitX=0.995;exitY=0.63;exitDx=0;exitDy=0;exitPerimeter=0;" edge="1" parent="1" source="2SEQ9JCuGxX66qTga9O--22" target="2SEQ9JCuGxX66qTga9O--16">
          <mxGeometry relative="1" as="geometry" />
        </mxCell>
        <mxCell id="2SEQ9JCuGxX66qTga9O--22" value="P2P&lt;div&gt;Market&lt;/div&gt;" style="aspect=fixed;sketch=0;html=1;dashed=0;whitespace=wrap;verticalLabelPosition=bottom;verticalAlign=top;points=[[0.005,0.63,0],[0.1,0.2,0],[0.9,0.2,0],[0.5,0,0],[0.995,0.63,0],[0.72,0.99,0],[0.5,1,0],[0.28,0.99,0]];shape=mxgraph.kubernetes.icon2;prIcon=api;rounded=1;" vertex="1" parent="1">
          <mxGeometry x="617" y="320" width="39.58" height="38" as="geometry" />
        </mxCell>
        <mxCell id="2SEQ9JCuGxX66qTga9O--94" style="edgeStyle=orthogonalEdgeStyle;rounded=1;orthogonalLoop=1;jettySize=auto;html=1;exitX=0.5;exitY=0;exitDx=0;exitDy=0;exitPerimeter=0;entryX=0.5;entryY=1;entryDx=0;entryDy=0;" edge="1" parent="1" source="2SEQ9JCuGxX66qTga9O--23" target="2SEQ9JCuGxX66qTga9O--80">
          <mxGeometry relative="1" as="geometry" />
        </mxCell>
        <mxCell id="2SEQ9JCuGxX66qTga9O--23" value="Seed&lt;div&gt;Varieties&lt;/div&gt;" style="aspect=fixed;sketch=0;html=1;dashed=0;whitespace=wrap;verticalLabelPosition=bottom;verticalAlign=top;points=[[0.005,0.63,0],[0.1,0.2,0],[0.9,0.2,0],[0.5,0,0],[0.995,0.63,0],[0.72,0.99,0],[0.5,1,0],[0.28,0.99,0]];shape=mxgraph.kubernetes.icon2;prIcon=api;rounded=1;" vertex="1" parent="1">
          <mxGeometry x="609.58" y="221.94" width="39.58" height="38" as="geometry" />
        </mxCell>
        <mxCell id="2SEQ9JCuGxX66qTga9O--95" style="edgeStyle=orthogonalEdgeStyle;rounded=1;orthogonalLoop=1;jettySize=auto;html=1;exitX=0.995;exitY=0.63;exitDx=0;exitDy=0;exitPerimeter=0;" edge="1" parent="1" source="2SEQ9JCuGxX66qTga9O--24" target="2SEQ9JCuGxX66qTga9O--16">
          <mxGeometry relative="1" as="geometry">
            <Array as="points">
              <mxPoint x="890" y="254" />
            </Array>
          </mxGeometry>
        </mxCell>
        <mxCell id="2SEQ9JCuGxX66qTga9O--24" value="Crop&lt;div&gt;Pathogens&lt;/div&gt;" style="aspect=fixed;sketch=0;html=1;dashed=0;whitespace=wrap;verticalLabelPosition=bottom;verticalAlign=top;points=[[0.005,0.63,0],[0.1,0.2,0],[0.9,0.2,0],[0.5,0,0],[0.995,0.63,0],[0.72,0.99,0],[0.5,1,0],[0.28,0.99,0]];shape=mxgraph.kubernetes.icon2;prIcon=api;rounded=1;" vertex="1" parent="1">
          <mxGeometry x="680" y="230" width="39.58" height="38" as="geometry" />
        </mxCell>
        <mxCell id="2SEQ9JCuGxX66qTga9O--25" value="FarmWise&lt;div&gt;Management&lt;/div&gt;&lt;div&gt;Analytics&lt;/div&gt;&lt;div&gt;Reporting&lt;/div&gt;" style="sketch=0;pointerEvents=1;shadow=0;dashed=0;html=1;strokeColor=none;fillColor=#434445;aspect=fixed;labelPosition=center;verticalLabelPosition=bottom;verticalAlign=top;align=center;outlineConnect=0;shape=mxgraph.vvd.nsx_dashboard;rounded=1;" vertex="1" parent="1">
          <mxGeometry x="1000" y="253" width="101.07" height="94" as="geometry" />
        </mxCell>
        <mxCell id="2SEQ9JCuGxX66qTga9O--118" style="edgeStyle=entityRelationEdgeStyle;rounded=1;orthogonalLoop=1;jettySize=auto;html=1;exitX=0.96;exitY=0.65;exitDx=0;exitDy=0;exitPerimeter=0;" edge="1" parent="1" source="2SEQ9JCuGxX66qTga9O--39" target="2SEQ9JCuGxX66qTga9O--9">
          <mxGeometry relative="1" as="geometry">
            <Array as="points">
              <mxPoint x="400" y="520" />
              <mxPoint x="390" y="520" />
              <mxPoint x="390" y="500" />
            </Array>
          </mxGeometry>
        </mxCell>
        <mxCell id="2SEQ9JCuGxX66qTga9O--39" value="Farmers" style="sketch=0;pointerEvents=1;shadow=0;dashed=0;html=1;strokeColor=none;labelPosition=center;verticalLabelPosition=bottom;verticalAlign=top;align=center;fillColor=#505050;shape=mxgraph.mscae.intune.user_group;rounded=1;" vertex="1" parent="1">
          <mxGeometry x="268" y="530" width="50" height="37" as="geometry" />
        </mxCell>
        <mxCell id="2SEQ9JCuGxX66qTga9O--119" style="edgeStyle=orthogonalEdgeStyle;rounded=1;orthogonalLoop=1;jettySize=auto;html=1;exitX=0.82;exitY=0.14;exitDx=0;exitDy=0;exitPerimeter=0;curved=1;" edge="1" parent="1" source="2SEQ9JCuGxX66qTga9O--40" target="2SEQ9JCuGxX66qTga9O--9">
          <mxGeometry relative="1" as="geometry">
            <Array as="points">
              <mxPoint x="460" y="672" />
              <mxPoint x="460" y="570" />
            </Array>
          </mxGeometry>
        </mxCell>
        <mxCell id="2SEQ9JCuGxX66qTga9O--40" value="Extension&lt;div&gt;Agents&lt;/div&gt;" style="sketch=0;pointerEvents=1;shadow=0;dashed=0;html=1;strokeColor=none;labelPosition=center;verticalLabelPosition=bottom;verticalAlign=top;align=center;fillColor=#505050;shape=mxgraph.mscae.intune.user_group;rounded=1;" vertex="1" parent="1">
          <mxGeometry x="364.79" y="667" width="50" height="37" as="geometry" />
        </mxCell>
        <mxCell id="2SEQ9JCuGxX66qTga9O--120" style="edgeStyle=orthogonalEdgeStyle;rounded=1;orthogonalLoop=1;jettySize=auto;html=1;exitX=0.5;exitY=0;exitDx=0;exitDy=0;exitPerimeter=0;curved=1;" edge="1" parent="1" source="2SEQ9JCuGxX66qTga9O--41" target="2SEQ9JCuGxX66qTga9O--9">
          <mxGeometry relative="1" as="geometry">
            <Array as="points">
              <mxPoint x="560" y="620" />
              <mxPoint x="530" y="620" />
            </Array>
          </mxGeometry>
        </mxCell>
        <mxCell id="2SEQ9JCuGxX66qTga9O--41" value="Agrodealers" style="sketch=0;pointerEvents=1;shadow=0;dashed=0;html=1;strokeColor=none;labelPosition=center;verticalLabelPosition=bottom;verticalAlign=top;align=center;fillColor=#505050;shape=mxgraph.mscae.intune.user_group;rounded=1;" vertex="1" parent="1">
          <mxGeometry x="534.67" y="690.5" width="50" height="40" as="geometry" />
        </mxCell>
        <mxCell id="2SEQ9JCuGxX66qTga9O--99" style="edgeStyle=orthogonalEdgeStyle;rounded=1;orthogonalLoop=1;jettySize=auto;html=1;exitX=0.5;exitY=0;exitDx=0;exitDy=0;exitPerimeter=0;entryX=0.5;entryY=1;entryDx=0;entryDy=0;" edge="1" parent="1" source="2SEQ9JCuGxX66qTga9O--55" target="2SEQ9JCuGxX66qTga9O--62">
          <mxGeometry relative="1" as="geometry">
            <Array as="points">
              <mxPoint x="470" y="310" />
              <mxPoint x="517" y="310" />
            </Array>
          </mxGeometry>
        </mxCell>
        <mxCell id="2SEQ9JCuGxX66qTga9O--55" value="Agronomy" style="aspect=fixed;sketch=0;html=1;dashed=0;whitespace=wrap;verticalLabelPosition=bottom;verticalAlign=top;points=[[0.005,0.63,0],[0.1,0.2,0],[0.9,0.2,0],[0.5,0,0],[0.995,0.63,0],[0.72,0.99,0],[0.5,1,0],[0.28,0.99,0]];shape=mxgraph.kubernetes.icon2;prIcon=api;rounded=1;" vertex="1" parent="1">
          <mxGeometry x="450" y="320" width="39.58" height="38" as="geometry" />
        </mxCell>
        <mxCell id="2SEQ9JCuGxX66qTga9O--62" value="WOCAT" style="rounded=1;whiteSpace=wrap;html=1;" vertex="1" parent="1">
          <mxGeometry x="487.2" y="40" width="60" height="40" as="geometry" />
        </mxCell>
        <mxCell id="2SEQ9JCuGxX66qTga9O--77" value="" style="group" vertex="1" connectable="0" parent="1">
          <mxGeometry x="552" y="460" width="65" height="70" as="geometry" />
        </mxCell>
        <mxCell id="2SEQ9JCuGxX66qTga9O--68" value="&lt;div style=&quot;line-height: 80%;&quot;&gt;&lt;span style=&quot;font-size: 8px; background-color: transparent; color: light-dark(rgb(0, 0, 0), rgb(255, 255, 255));&quot;&gt;Personal data&lt;/span&gt;&lt;br&gt;&lt;span style=&quot;font-size: 8px; background-color: transparent; color: light-dark(rgb(0, 0, 0), rgb(255, 255, 255));&quot;&gt;Farm data&lt;/span&gt;&lt;br&gt;&lt;span style=&quot;font-size: 8px; background-color: transparent; color: light-dark(rgb(0, 0, 0), rgb(255, 255, 255));&quot;&gt;Preferences&lt;/span&gt;&lt;/div&gt;&lt;div style=&quot;line-height: 80%;&quot;&gt;&lt;span style=&quot;font-size: 8px; background-color: transparent; color: light-dark(rgb(0, 0, 0), rgb(255, 255, 255));&quot;&gt;...&lt;/span&gt;&lt;/div&gt;" style="rounded=0;whiteSpace=wrap;html=1;align=left;" vertex="1" parent="2SEQ9JCuGxX66qTga9O--77">
          <mxGeometry y="11.666666666666668" width="65" height="58.333333333333336" as="geometry" />
        </mxCell>
        <mxCell id="2SEQ9JCuGxX66qTga9O--76" value="&lt;b&gt;Profile&lt;/b&gt;" style="rounded=0;whiteSpace=wrap;html=1;" vertex="1" parent="2SEQ9JCuGxX66qTga9O--77">
          <mxGeometry y="-8.17" width="54.166666666666664" height="23.333333333333336" as="geometry" />
        </mxCell>
        <mxCell id="2SEQ9JCuGxX66qTga9O--78" value="iSDA&lt;div&gt;Soil&lt;/div&gt;" style="rounded=1;whiteSpace=wrap;html=1;" vertex="1" parent="1">
          <mxGeometry x="439.79" y="100" width="60" height="40" as="geometry" />
        </mxCell>
        <mxCell id="2SEQ9JCuGxX66qTga9O--79" value="KAMIS" style="rounded=1;whiteSpace=wrap;html=1;" vertex="1" parent="1">
          <mxGeometry x="547.1999999999999" y="100" width="60" height="40" as="geometry" />
        </mxCell>
        <mxCell id="2SEQ9JCuGxX66qTga9O--80" value="KALRO" style="rounded=1;whiteSpace=wrap;html=1;" vertex="1" parent="1">
          <mxGeometry x="599.37" y="40" width="60" height="40" as="geometry" />
        </mxCell>
        <mxCell id="2SEQ9JCuGxX66qTga9O--81" value="&lt;font face=&quot;Helvetica&quot; style=&quot;font-size: 20px;&quot;&gt;&lt;b&gt;FarmWise&lt;/b&gt;&lt;/font&gt;&lt;div&gt;&lt;font face=&quot;Helvetica&quot; style=&quot;font-size: 20px;&quot;&gt;Farm Management System &amp;amp;&lt;/font&gt;&lt;/div&gt;&lt;div&gt;&lt;font face=&quot;Helvetica&quot; style=&quot;font-size: 20px;&quot;&gt;Agronomic Advisor&lt;/font&gt;&lt;/div&gt;" style="text;html=1;align=center;verticalAlign=middle;resizable=0;points=[];autosize=1;strokeColor=none;fillColor=none;" vertex="1" parent="1">
          <mxGeometry x="10" y="120.97000000000001" width="280" height="90" as="geometry" />
        </mxCell>
        <mxCell id="2SEQ9JCuGxX66qTga9O--82" value="" style="shape=image;verticalLabelPosition=bottom;labelBackgroundColor=default;verticalAlign=top;aspect=fixed;imageAspect=0;image=data:image/png,iVBORw0KGgoAAAANSUhEUgAAAGQAAABkCAYAAABw4pVUAAAAAXNSR0IArs4c6QAAAIRlWElmTU0AKgAAAAgABQESAAMAAAABAAEAAAEaAAUAAAABAAAASgEbAAUAAAABAAAAUgEoAAMAAAABAAIAAIdpAAQAAAABAAAAWgAAAAAAAABIAAAAAQAAAEgAAAABAAOgAQADAAAAAQABAACgAgAEAAAAAQAAAGSgAwAEAAAAAQAAAGQAAAAA3IGzQgAAAAlwSFlzAAALEwAACxMBAJqcGAAAAVlpVFh0WE1MOmNvbS5hZG9iZS54bXAAAAAAADx4OnhtcG1ldGEgeG1sbnM6eD0iYWRvYmU6bnM6bWV0YS8iIHg6eG1wdGs9IlhNUCBDb3JlIDYuMC4wIj4KICAgPHJkZjpSREYgeG1sbnM6cmRmPSJodHRwOi8vd3d3LnczLm9yZy8xOTk5LzAyLzIyLXJkZi1zeW50YXgtbnMjIj4KICAgICAgPHJkZjpEZXNjcmlwdGlvbiByZGY6YWJvdXQ9IiIKICAgICAgICAgICAgeG1sbnM6dGlmZj0iaHR0cDovL25zLmFkb2JlLmNvbS90aWZmLzEuMC8iPgogICAgICAgICA8dGlmZjpPcmllbnRhdGlvbj4xPC90aWZmOk9yaWVudGF0aW9uPgogICAgICA8L3JkZjpEZXNjcmlwdGlvbj4KICAgPC9yZGY6UkRGPgo8L3g6eG1wbWV0YT4KGV7hBwAAQABJREFUeAF1fQWAVcX3/4fYhV2apTuW7gbpLkFAAQUFDEJBQQRRRMEuBFRUMLBAQAERkG6ku0G6u3dh6f/nc+bOew//39/Ae+/emTNnTsycOXNm7t1kh/asuM8EJAMTv3jNOyRLZhnKDCUH4vKtjtWLhLtPDEF5qJa/MKxWai2oyeTJ1FwoGU7ehdt2dUIAKou4sbo+I6BFZDucEYh9LYMRglClAFvkva7/bz5cqasWvvZ0+jZZEtBjkP46+A3XC5r35bxNKRSGhl8Uj/0zgj0Qf1VuSDy3KguShKgyn+4bLS7PQ3ndCjaMje3e+y+cVSYvzGelsIIC/tjIPZVRkSLKlbMLBA0YfuaH23PXHp8IZXUm4Q8oDu7tx7KCq2SiTTTcY66Alc9fVRQS/Vi+bsO1HWSoxLUnmg230DgJGLYQrgAni1MaYPiLFQNBENgYERkh6gOs/l4N+boiyvDyV42yQPVU7Mk1WEdJkGuVDUaYQ+3philZsuSWF4nAK8pwu8Y9sGtLbQcNhmAoVKeUgJcIGNcO6VSlSHxsVMoXU8mZ73EaN4KzDCdcMus6iZAF+czQnUPp8aosqOs49wDKZhu8tRGiRh3B7leIdG+//LLKRpt9uUaF2Dck+ADOiBfyiPrCY4QGdXyZajkUnjwxGCiR9ZXrFRDGYVdCGDTq6ypLecLpmHPtiLIwD64Fh9cK+BWix0aDgxYONaBvG5WW7fIE78oDvMz2bYn6UEdSHSbVYqb7iG7HtNGqItEkKlUvpTLCKSDetRsAGTqCiLiwoMN1hNcN68hyT7AEFCJAlbzAPFP8deQ4goy8yCqCUz1Phi4lcOYr3b93L0DvAJIlT273upNJdBXDCG0kqKIl5js0QR2OSMtwuNS5HFhAo6GRwJmr9n05bx2/AV0BbVbbYB0afbsi16jVYUZyWYIAJKQQFbq6bJyMJE9BxvjPa16N+0p2TUSOiIAYFvpy14PUOj8imrB2GTTqyo1clyNcmhcCDHbFCgYRMC3BC4t6kbKSG7xg3L2urBXWu0dYJTM5nk7++tFrhdaWqxPmXeQ6U2M0s44RwfbUTmQ9y1eGh7FCryzeOOLD5YQzGfh8g1eOQIJ2+JMyJCwJXAVMIvCe9S4JwLIMsSsNaJRWOTJ8saBCI8VwOTxWW0AiSO2yzMTg22KRerWrKzj7bxdsHSkInyJFCqSIjhIk4WjbSdvde3dx5w4/d+9aHgsNd0p2pJQpUiJFStYJRosUc49wqifFurlBNagk8/S8sIRf841wOTocf7oJuLcCfy1AXxTkCa0xobkn6BQE8kp3WA2IXyYJoTAenMkyAQUZArEGJAoBC1KZrkA/PlmpJ06/BEwmF4vXbgQoyzFqQ99gVJsI+d9wBfUsV3m8T54iGQWagoJKgbsU4vUbSbhy7RIuXLqCsxcu4PS5czh1/gJO8ffkJf4mXMH1W7es3eyxaZE1bVpkzxyHnHFZkTNrFmTLEoesmTMjS+aMSM+yVFRsCipNyrl95zbbkMlju5JeoAnjLaDHceYV5uh2nqSuXR3x60ascWVoHE+GxPC7+0iPzfHr8OtaFkleFonxQ1yVnLBEEpEJhP+tc2g0SICqxeR7mfL0EYzqqDgAcRhUZjUCfHbtgAQnPGJIgkqZMiVu3rqNM+cv4ejxk9h98BBWbN6MuRPn+Frh3/JxKJ69MHKky4xMadKSh7u4kJiIAxevYMG2RcBu12qoQkbg0bZtUbV0aRQrWAB5c+dAXKaMSJ0qlY20W7dvkw9Hu/ETVPRYzNwxz8slGd1iY5qVQsZMQohI4k2KEp8qCZlDd2d8q8zKVZe4kh3kwjAAt2qWH0IQQmWNqwHlGOWhH+YEyFQUTkZCxG3ASgDu25QiZLI0Anb/ewCrN2/FqLm/AlsTXd2KOfBCg0dQvngx5M2VA5kzZrCeHhOTGtFUoOY6mSjRIPN1lyZJwr1+/QZHVgLOX7yMIydOYOPu3fhp3s/AvwFJlbOhf+PHUK18GZSIL0zlZLCOees2Rxu5FJ8hxXj++CuunJkTnoBHlSupkmWpg1JWulemr69bJpUpuXK74leQd2D3cpZHVFY5kwETJsCvHNdIUOjbtsZCFXTh6gqna9iNIMFLoRqN6m3RqaLNeThx5hxWrNuIt6dPQuJyJ63WXduiVd26KFeiGHJnz4b06WlqoqICQYiiYI2gNtSgtRXQTNx+1Eqsur5Ds3STZu0qFXT81Bls2bkH05ctxbzfZqk2cjYojf6tHkXNyhWQN2d2qyPFEK1dqz3z2MiEcOq/T2GYUA4vAgArNPJ84QO/Hk3AheFOptCJNxvO1nsEpooHERCD2hCBNvx4o39+KDoFBOSoNcIaFmmXsJqIU6dKbUweOnYSi1auxrA3PrU2Srd4CC880hYPVaqAAnlzIW1srCG6e+eO9fxIsxpqx/CyOs2Ho0uogoZdy040hEvOUWjOAUeUiq4l3sDhYyfwz/pN+PyvqTgwf73RMez9gWhUswby0aRJmTdv3jQP8AEe1RibUZ5oEZwlXotfpSAnfE8YORQENvgHeFAFj/PgnuWGQ/dKnh27toZU4HP/82tFLi9UPwCJjFPZWoG2VMo4c+4C5q9YhUHD3qVUaNefaY9ubVqjYplSyBaXSfSayZEiyKoRb2SIICNaDfw3eRqDfE+Mbn1l5gnKBMhfeWGpoqJxl/lnOWdt2LoDP8+cgT/HTVUtvP/x62hapyZy58iGmxwtmvz9PCKUasIpQ9ARQg7aEYBM8f9MAUwgKgPxSrU5xGvLV/YsiwElAXtGQqz7PGM4BOkqBN+qo0+q6GgzG6s2bMbQn8Zh/4JNqP1YYwx+9jlUKVsKGdOnMY9Ktl+mQcpUjxZTDnPQqpfEA608eCOT4mtFMhwJ5WHuycNiW9HyvOjVXbp6DRu37cKnP/2MRZPnIFOdEhj1XC/UrlIRUVEpkHTzlrnSIVwmKC+tUK5deJl6QSvTLRMI7/kwGQaLal4LU0ghDndY8IZAX0y+Z5j9JwPqEURvv5Frj3Cumy8IYF7MqbMX8OufM/D5x2OAgsBPb49GywZ1kClDOhsNdzgalKQEr3zLCL483si8yOtweaC4UKG/d79eEaHi4EJ8CYdGTTTnqstXE7FwxWo8zlGCzRfQ/aWueLZDO3MqkmjCxLtW1yEnR3iIwClBmFxyvMg7/V8jhd2GnU/KcUoLaHRelhB44h3i/2pWLUbmqfcKmU++R5jyWCbYaI6MDVt34oUvRuHEkm3oPaAn+nTpjCIF89HVvEVl3DE4wxL+MpTCJxz6F2bWt6ZcPw58noEZF+Ec4rD64Y4mLv+vpDb1iaL3JtoPHj2J7yb9gU/eGQlUzYUpr76NGhXLcP1y5wET5vB5+bkWiMbRT/J17fmRnH1ZJB1Wzgzn9hqEqyggJ3jXgAAdBisRewIIN8ByQTqHwK1pUrKnKQL69+LleKHXa6qB8RPGoHWTeohNnYqLvRsBsYZNNBKngVlbKdlLRcNtmrD/lhkUy3z636oROq+ySOS+Fn/Fl9J/cKlBc3I4amJiYqzTzF++Gm17dwVOAiO+eAdtmjTgmik5bnHNpGiAJGByslYjcIbkqo6hUeJk9f/JUCWEFc+hsWR1meGU4ej1QC7P+lpYcESi5IN5Yk9eVHRUSvb+e/jxj+mmjGJNq2Htqrl4/JFmiKKHk8j1gey1b8eJlrX5X6vn1KlTY/e+Q1i6ar2ZD2tEXwHB/xWgWBSOCLkK2P1jHcU9xYc+Mk36tSRezfwKPCgnsNYxwifzdSMpidf30bpxXWybtRgNOzZF/5fewte/0kW/nmRzj6IJSuJH9dSyvt21oWZZoDQBMhkFbFN1PG0mD+ZpRWUAQiDCfHIMugrK8wJ0DAVwYsTKFIq4h9Qc5onXb+KbCZMx6qNv0KF7R3z4Sj8UyJOTC7XrJjWNnpBQgrpi/g7DGPLGUtBcHDt5Elt27UPD2tVZx42SlCmjrK27d918Y+x7rsW+p50ESbFaSQuvp1vwigQoSeiy3xoJWuSpl7vQh+pyYck1iw+paLF5h7SXKloQv3z0Ad7LUwDD3x+N81euoP8zTyEz58GbN29byMdkQfxGilbyEckLnAQZgIcViKdR1xY6CQnItOBAlafeYYoyHMp3WiWKB5CKCdndhMQkjBj3C74d9SP6vtYbg3v3MIITGNLQGkBJxAqnhBYTkwrrt+zCrgOH0PXRVlRmoilFXlm6NGnUHO4ygJg2bRp6P7uxa98BdG7bkt5OkiERz8IlykSDzGZytpOKi06N3KSkm7YgFFtq7+iJU9h/+KjFwxJvXDdzFEVFK8aVhWGUnNmyomC+PMiRLY64nOLUvpSTwHVLtriM+GBgX2SPy4xhgz/ENSpqWJ+edE7S22hSjMx1FHZUdQrSIOpC8uWdwv+i10Rtvw92ekZ7VSi2mExankXHqCthM3bh71jGDDUnQajXJ9GefvnLb6aMAUP6YfAL3bm4c/OFgoUiwiURaGQao7lzZkONLm1QoWQxlC1RxOA0aUro92hComgCr1Owz38yHB8/38N6sleqgnxKivBGpY7mnHOXa4bbOMTJeOWGTdi5/wBOX7xgQkpMuoGZK6YDh1yd//nNPpO5Tjm817EzR2dNpIlNjQzsDLGxnEs4amSmYlJF4ZUe3WzSHzzgbaShiR3c61nEMpQjun0P8ebQiZSEhmTLlnUtQP7alQlXVwq/88ZWkHbLLwP2N7zlpfHNfGlc2jZ3T/VYZusFQkz4cxa+Gv4dXh78IkdGd6Rh779Bv/1BZTi8KSlkhcM1uSs+tWjsRDR9bTC2//gdsmfNjBgymYkxK9GVnHGqMb9MQsvKldGgVg1cS0iwkSBzpN6rzpBAQa3dvA3rtm7HniOHMXn9Qrqr54F4thfj2qT9Qt6CJZGpRBrngJBm67mBMHR98+5t7L1yGi8MeBUomB6l8pRElcJF0LxOXTStWxPp06XlqEtCSg6fF7s+wbXVHbw16H1kYzT5+c4drLOog9ookdQkMwmPv3ahXyY3ACLzCCd6WJaib5+nhwlI6b8jRff6+CHnfwMebHRoEp69eAUGvPw2nujZCe+/0pcmINZMhYZwKFkl14aGfxQ9qbQ0SzeolPx5cuMeff+c2bIgR97cyJYxE0oUKYQ07J0KEv4+ZwH6devMNU2UmcbUqWOst6bi/VXiavL8S/hs2AgsO/4P9l9PQKksuZE1PjfSZciKuLQ5kTldDmSMzYo7FMjlW0m4xE/i7Zu4yk8ShXqDPTuRq/HbFGbu2MzIlj8XR0danLhxBev3rcCU0X/hfizNaGwamtnUZhJTcpugUpkyuMFRNfLD0ShYtADKFC/CjqaNtED+XqaBwJw6QhKxCydzJ2OZ3GQHFVz0MLwyAKdc5uqeQmV+CIa5glFP0DDdsHUXWrd5GiWbV8Pfn3/O4Fw2CkueFOvZ0NKXXRDNPVu1T5g+B38sWIChz/dE2ZJFiZ+TOc1a0s07mLd0BRauXmOmJz5fXrRv0dTs+u1bNymIVBYVnjRjNvYfP4UPB/Qxszdl9nz8sXA+5u7eCGw67ZqrnhuF02ax0IiEnj46lfXCK1SGfJ5E5ik4k3gzAbh5AUiTB5lSROHSZQY4oxirZ1maNFlRKG1mGxGb160FzjKbaeGCKahVpbxxdfHKNXR7/U0LVP7xx7eMxZXjyL9OfuQvhU2S68ymqkAaasHJUjhVLrkG4XdlueQLBO6QuFHiy5WvCVJh87MXLuHxN9/EvvmbsG71HPaY4pz8rjszxQZcy04Zqq8seTMKQaxj7OjTnycgZ6bMGPXGAMPX/Y13kEBb37tjB7PbG3fsxCsvDcE/y/7CQ1UqYOrfC9D+7SEY+kQ3PN6qGfLnzmltyHu6TMGcv3iJQcPrWLdlG76ZNQO7dq4CsqRDkbhCpHGrsZC8VkHcu3YRueIKIBNHWEx0LHJnisPR86ex+cRetC1XD3fu3UG6mFgcOnsSq2cuByoXRr18hVE8Tz6Uio9H8/q1kYcxLvGRjtZg74GjKPlYXSBTHqz+bDTNcHYrc55bmH+vIOV72Tq5uPCJjZBDe3lQjgKmeoxgU4iudC8J2nXoy+WxSCPnix9/w8iPvsakyd/hsRaNrGdop89DB7XtPjJPPSGWnsktmpu1m7aiXKkSGDdpCnYePITRw96gcjjHcE2TnL16+cp1qFu/DU4e3owjx0+YySpXqhjnjzs2ibqwBB0LjrDkybk/Qmblql656vZCho3+GmeuXMWgrl2ptCv45s9p+Pk9Kp6e32c//ooRgwdwRN/Em6NGY+CzXRhFyI8Tp8/SozuIrydPQcfG9dGIQUZaKJqxGI6aWI7KO7hFZYgPudDKn7t0FVo+3Bnd+3bFa5zkU5AOiTWcIm78ZaTM7Zquet8+zwxzytCIkKDd5GLlTkcaK4ZXGhQBMlX/rNuCgS8Ps0m8R6fHbJJmbasvYFUNqlvd0Bcb0Qp42/bdOHP2PKrXqobr167h4fc/xi9DBplrqYn7Nifs24wbFSlUAFfu087TxWz5cBPkyp5Frh0Fr40pt82rluRoaGGqevf5K5c6B+ek+tWr4kZCEpVxFWW4v7Jsw0Y8XKcW56iCmLP0H1QsVRLfTfgNx8+fR95sOTB9/mKsoId2i/NLr46P0pGoZg5KarnSZELelsy1ZGY8SibsAAVpXqMzpsNnXKOUr1wGxQoXtEiDOoiH81KRNCVnl2SqVOLu7aCcALwyQqMiIk/etZSihkXYmXMX0eMbxnfKpEevzh3pCkbb5GzBQdULPr5J/XrPTMpYsWYT6r3YAdh1GwvnTyHTVbFuxCcWbLxpnhntLyupPXljZYvE4xSVl8jdv02MxsoN1eGHdJz0c0pBrr9YHeOT/rDWDlKs3NY+XTtyHbMT85atwOJJf+M11v/x4/dRksou2rEVsP0C3vl4CB2RJDThYlSeX5bMmcwb02pdyXghcvMqJSzLpBjVEdhW6lQp0a19G3y/aC6e+ag/1hWbxc21LPQ0b9r8aCbKCdnwSp5hNM6ESUnuoBxLvPB0YYvMoE0h0qWAze3l9axFy5CwYh9N1bconC+3rcK1IPtvMvPHeppztNUazf2H6fOW4NFHn0b2esWQJlcUGjV5DLNmTkBLhicSKUDt7qlXyWSpJwrvOc4NGehyKnY0bT73y3GPPfoCapUvj+6Pt7N70SjTqzbNoeC926NnyJxtazewWoWyNK1N0WbgK3j3izEU1g1w1Yntm6egaKF8Zg6lXZ1m8SPBdzKic8nkYRIhqBOS6NV8onllTL9XzHRNm7sAL3TpaLz4/SCDVn3KRCrWjxwdoTHLxIvQpO6ER7igUK2rV/ukcpmqfw8eQb2GHdCmW1v88ME7FizUgkhEqZHIpDuZETuWQ69j/J9/49mnX0KxJuVxS8LmPJSC2v+XE+5vE8fisZaNcVsmgW1JiDE8vHDi5GnkKVsJ25ctRumSRXCdk7Y8Mh/+ULPqKJpTFKEVY9rlM25FEctFuzqF5pu0moT3H0bxNnWAA8DSxX+i7kOVkUCzafSLZ1ayDshf1VUSHsnGdU/L0ZdxLAjBqSOwP6H/+5/gu1E/YN6c8eYK6+SMjSyr4b4CdKrp/1sboYWCCPBJyPVRlnL1K4HfunUHc5atNLB+XbpwY8ntZ/iwCCuxTA24EXeXQlAvTcaJfuyEP0wZZVtUQQLjVtdooy/duoHrNEnFm1VApyd64veZ8xHFiVyM3Ui6hS0M3ed54gmMHTmCp0Ry4ixNpU6JKAp8n/WiuChkE+Zma11z8OgJTvynzT32ghQH+ucEch8JCYncIs6N93q8YXwU5Ai/KbNEM2dKYNvm7ag04MMk4+RGmCA8YrXDX6ojZyI2JhrdOz5mBX8tXEI+ZLLoaGveoWy8mI0+yYv/Q5mi02oGgvTlBmA1pRH2EnKtWNVhejkfv/M5ur/8HLdcS3KYJllvdcjDiBU2UA+WwO7fd97YS71fQ/mWVXGaC7ebHDViPkqC5+r4Cnt06eaV8WTnXpgwbRZiuJ8uL6nPxyMxsW9/9OjcHgePHEP2RzUX7CbTsdZuEjvImAlTcYoHJRRikfA7vP4mduw9wKhxKusfok2mT7/24bUEFJ8/n8BN+aYyx6rR5fmXrPSxe8OujPAYUZGV268ClS5+VqpYPF59sx++/uwHHDhy3Ey1g9OIczh8G8IhLNYZeOUUIqET0I8StwvomyIUyzXkF69ap9p46pFWDG9E2WRmGRFfwuFGhuJXyfDlTxMwqP9bqPhwdZxIvMqFGk1VAC/TlJI97tb9u7hM5ZZrWQVPd3sRv0yZwdV7LswdM5JmrAnnqETzilZ99imq9n0Bo77/hZGQKGzduRsDpkxGwfx5TdjFCudnqKOAbSrdu6vJlhtgbEvRBIVj9FHIRcxa5JcsKgApmkWLOrEcCf9ximRIPsiLkIhx4OXl1CK10swTSTTbaN+imcHMX7HS6msE+U4RrkcQ5lti+8JP2bieo0xVELCGJS8tSTna1jzHReA7bw63kHqpooXN1geoHGCAWIqTB6Q1gczUa68MM2Uc5wlD4VRZJGM2X5CM69xBvMAwikZK16d6Y9KMuTZnWZAxEFSNSmVx6o+pXLjJg0o0E4EVW7Fz7356fpeweccejF04HqWLFkE0R0harhkUC9t/+BhWbyQcz30l3eScRrNXvlQJfP/DSGtDkpQLrb0cKS0NR6j/KEyjERlLXJKNaA/x7YUU5BhfLJRJLcrO0b3fswzVf2XrGu3bK2kUiWcvYK8kJxPbD5ECpBSDd4BEGsjXzJXmiE07dhtAx2ZNGWRTDOq6TcpBLfsxhfIqipPrL1Nm4uUXB6PCw9VwNOEy8Wsf2jHkmwoxRjY1byTeZTwp6R5KNquIzp16ImbaT3ikSb1gLyW5KSFzxvQY0LMb7pDpknSHn3y+M6q1b4FCJavgIGNP2H0TGdNlwIkTp7k3fg0zacdfH/OOTeDIAzzZ6im0a9wAVcuXRRe6qXKzb9xwjsRNbh8kcr2jNYtW/RcuXbawupSkdUVJdkR5ePLC/CTtT9OHeGJnVtAxDZXYplEDm9w3bN/JEZ9TXd/kZHxLFoHQbWwFApfh1SAxHQtcHwGokiooMisvYSYPlqFcZvas4jZBCZfmCjUiaKvL0RQTk4aLqyV47pm+KMcJfP9Vuqzac4hOjbM3EnGbMLnTpLc55vSNBKTmhH+LeVlSxTD4dw/n6IpG3UqOEk0roF27bli0YCrqywviylpC0MkUHXqTAjOwYxQvUAigHu7fv8FYFJCxbll0Gj4ISMV41NUjwNF7yFqpKLLEM1DJUTh+6a8Y/82vQM0iaFesnAUM1VES2MFOXDyPVaePss5+4DgF8J/0wadv0ZV93CIJUopZE8KI9weTc9vLlCiKtHVLY9qSRWhS5yELD/mNL9V6wHQFCJLp5KKufQ8OISaRciW1CNt38CjqNeqA14e9grf69rLFmoZdCCEx0ALTRKTFsjUbUa9jW5SuXAlnqIDsMek4PyTi+IZdyFi+CPKlzYRtmovigFJFKuNg4mVki47BkYPbEZOnMAqmyYjDiVeQKyYtokjD7kObseW3hdwribc4mXMtqXiaJMWQSjeoj/jKZRGdIhoJiuLSSZCAb3NeSpM8Chmo6OuM5CbRkYhi703DtZDSIbZ788pBJ031PtZHqjhkTJUGGaN0TJVHg6xbsoz4UrEDbJm9HmO/H4GnObJuMdipYte7JT9hDZL1VppBtjV8zDgMYYh+wbzfuOtY2LYc1LEcvCoRg9p3mES7y9Cviv1HIFrMCXD3fjrsTLWrVLL5RJNcSBnM10ZSNN3VTQyH1GvQFjjHI7Q8sa5RsWPOeh7f3IUhAwchV2wGbJu9Dm+9Mggvt++NnXM3IJ6HpY9c3I8BnfsiS3Ra7Fq8ETkplPM3r2P36W0A127NXx1Ib+WE7WEbr0ZzcttBxCUgHYV+6sZV3GBQUMpIQcHHUhmcenA+6bopSeuhJJZfIN6L/MRR6PmzlUGBHGVRIHtZ5IvjsdU03IuhYqQ8RYUvcLTqc5Yj+To7Z7raBdFz9IfQ8VetebwS/K+THiVGGszLpKmvXqG8RGe0an6VPCN5sELmKalUErfkFaMbXctb0GEErUDX79hFrmF2VCvoQKWuIrHLjbzNIz2zGTqv3rYBPvpsGJoVLosDx7dYrGv/tNVUZmXsogKGffA6nu7YHr27dcEzL3bDnmvcSNp8AyUKF8bSr77Fk892woHLxxFDgfZu0h0dm3fEqcWbLTqgwKUpn2b0Mt3ibxkoRKW0ZDAZsqdOg7hUnMTJnIQv8yePztttCcKx7chW+XWOpkSaMX3kfsuc6iSj5CYL4P/JEzyVlICSmXMzmJXEznE0NIc4bMKuFG5BrcnLK1qoAFAUlOEOyvKmOQ+mEWmFH+vYumZr6kxUiNw9Ni3ilc97JaHWZH6FE+O45VPQuXMnPmeR0QRvSAIYXft6L3brhMU/jEXd6tUwY/MiVI6vjUcaNcLWXbvR9I2eQGlGw7m71vudYfjx96moXr4Cbp86iEKNyuLZ91/iwYZdeKlLV7Qv3winluxEjQoV8O17b+P4gQ3o0q6VeS8iWrOW9kAWbpyNmvkqst4a7Jm3GXt2b7I5SeWOCxLpL8iQo9NlKVs8SnAhMRLA/2NRKGm9dI3mrXCOvHin2ytc95wlLrUSRh8CNhzs6aRTnVSn6ns93B3j503GJW4RqPOGlR3UIqwoUT4ndbmozOCN6/lBM/yRyTp74SKw7QZq9alou2Xa4fMehtB5fnUt/1sN/vbXX8Dea0jMdR31Gj9C554hozrxyMr9gj6DBgIFozB76ywa2WiUL1YVV2mPM+cuhkfbPQ2UT4sSOYqx56fDl79PRIt6tRi1zWxxLL/YvHotEb2+/MweLVj573I7UNGYB6TXbduOd379GAXzlDETo/ERlrYodEkcKjnaIzkIeHfF9q0cmUBcvUv6M6I0dzIvXLzo6lKQD+CSDH1imehV1LlauTIYMwJ2rlnRaslbYSNVVhXztgL5UyFCwhLTEi+9Yvir7Uj1BqXihQuFGnejwjUuguxK9diQdgvPXKJhL5MR1zi8SzSuZB7ROdrhKwyXFKte0Qjdf2QLcIrhkc2c4MsCBbKVRY5mlayObHa6NNlxJvEarjLgmIaHJRSWkLIVfEzHNcG6Md9jPRVQIE8eBg7LIwOP49SvWY3wiRj1+2iuAyrgIkMzXmAmOgmA/7xDEilO8SAFenjxLMYYzHcK4UZkXMZMFi66cImdNEjGu78JZPhf+RQpWNAgjp86TS+VnU2tEFbTghqxPZ2gbnLJ0TQUIFUDtlIngPIPMVyilCt7ViLgZC5kqsRksPwVE7q2tQQVsunIQaRMncns+BkK9xgXhRKCvJzbtKv792/Be88OwS5GjdeumoNONTvj8Klt3Nu+zQmVoWwu5tJz9Bw+vpE7gOEjRGpEbWkeqVC6OHp0as/DB86dvHz5Cs+FpURHrZDpg2TUgo5bso5S0ecUoTkmA7261CyTAm6Rp1sBP5nohERxntI8oiQZpUvJrV81SudCcTSZInVUM50RcFYh+HKRDtUX7F0eG8pkJQePHbOOZfIyZQhGswapsynDzSMG7JUiJGJbDers7Y4D+5GmbhnrGRqCKjZyiUSQPqm+Jl310P3H1yMnt0bFmJSQinORUrqoVDh4fhda1W5Df/4Jjrp8qFqhFIb06sEmeTCCE2sslaHDBjEUmAR76fJVY0z4Q8LltSZIRXW1X2GmjNEEXZcqVhjP9n0G62as4gGGWzbJqzNodS+eFEc7cPUMtxju0utLx8MlmVEoXSbkoJu97/IJwnMDTW0zJVFIh68cQlp6kDq9okVjLPdzNuzcZbLR6t6IcgKxOqEvtilZijY9cFS4cVVs2b/X1lFav7lRKkmHk2TrDFmQZ0wHiDR/aAE2bec6PFq6vM0f6hkhDKztBaTqTiHJbXWss0/q5ZYvBRKnkgSCi3dQJE9eWyQlcDTd4KJTUeMqhaviZMJprid0VIyTGydS8OmyC5cvW13XUYLOwHJngzleidM+hFIzCn8MfbEX3nxvEGlITUgpNyWy0AuTZ5WBnaJ4prw4enAXXfD12DxrDTbxs33OBpTOWgwK8Vy4lWBt5k+TCS1KNMTWPTSrpTJjyeYNppA9xw7ht+l/W1hG8nDc8SKUeC1eSZB4j+VKv16Jkpi/eYHFzjQHmyxYWaNd9Y0f3pvUhMr1P8ecCZcIFTrG+lMo1DaPRXvv0qRYsh0sXTmzJoSqI5uosIOGd2jid9RaNfvi+kurbb9idb2IB9yEO5me0hYT4scxeIEhDMEqU2XKtROBwbWhVwUmMam9GZ0wHNbvBXu488nOz6Mgvbh9BzcjJmch5I3Jgt/e/5DmlYvxU2fp+Vw2E6Tt3mLxhbg1vQmPPfYMcjYsje3712Jwl+/RtFp19O37GpZvWITLL/XFK091QZs2XdGwVg3kyhZno9Xz6+k2mZIejQQFMvPnzEVHh6KhTPUYBo/USXrk05ksN2KoEKcMsRPubW6yCRTCkqw8OinPIHimyWBNakSofM0dEoZOravHK6kBmQfzUNSwiZIFpEQbVgq2ae9bhwE8E6LBwOyHX6RVD9HI/daBOEWRTfEUunqg6lld/jplydTS1HDtFMVVsuY9pYr54vFSmyfw8vdDcSJFrB1vzZE9DoW4FyI8dsiDNGrB26JBbezcugxDvxiNQ4t2IG1MFNo91RErNm3AlHFT2M49NHioGqq3a2xnmRXEFA1SiOSmzqbkuojrXJJRXCY3j4g2a9M6lOeXv9apqDyryHvDwEz9UxIS23njdXoeaHNCk06dzITUqrHzJtKW63BBEo9y6slXeU1ZaJ9TM/wgId6h4G/zYzhS80k2htP11K2OEmkXUr3EhiyZFU4RJ9uLQuzFp0/bFm4awmkTSvsyIlajRg/6SIiENNwkyeiTcKQgwSuVK1LUHIBd+/fhu5njTGg3aC5VX71X3pto0EHvaE7cCgSeuXwRFVrVRvkyXDwRa9XSZTGF/06ePk/PLgEDnnwSx/gA6YnTZ6zXX756lSMzjidoihKvlCJO9HE8pefevtJNuvhWImL5sY5kl8plZ7VvfjmBSxauF0rwSZxDlExodhWG02IylmdfF65Yi2a9HuejrJTemoMBFLB624rQNdgRoQ6SNjfy5CyBlXu3oOtrg5GVbmR2LhRTcdJMun0dGWIyc9XM3UCCXqDLmj1vCfy4egE27NuDsgXioYNz2u3LlyunvRAgEyO/Co2LNwlX5ko7c253ji4rO4lSifh4xPJESLPatRh9HWcPlMbo1CSVon36hCsJfEL3Gs3XVYuX7dp/ECv2LUGjEk3wOQ+Pnzh7FsfOn0Hu+sXR8YO+7pFtyTd4ctsa4derb/WnQopR4F7QQQcmgepQSv4hJXU6k7mIZ3KKCeYQ0yQBlARkgLxXRNPyTKd2GfqSiRLDuXNkx8zRv9naQL1VvVOKTEi4hot0RXVA4Sz99pPnz2HniWPYfZgnAPlQ/54QJncRzThRvtTpOanzfFWyGLrHd005N5PdxcpDa7By3eJwBDYnj+2WrYIGJcuiYokSFoaXonSCPZoLMU+H3vagVLkchyy3hGPpCoOmfP7yVRTMLew/ehTHuc7aefQQ1u1ZZjbeUcNlVHNGqs8fw8K/5rJukBsPNK7cDGVaxtPsZaSjE0vzG2Ue3OETx1GkQMFgbeFGqqvlBG69hhk+nmX3KpLYvXJ4YyNE2lEKqtq1n6QsP9CiFQRfMm2y7Se42Jm1eBHKFi3Gh/ozcr5hr88Sh5LxBe2Yjo79yGOSNyG3VCcMz+rVGHzu8OSZMzh88gT20T+ftncr9nOzyZhPz0biY1Ewc2EUThOHlBl5EjAXH4Erddvw6Gjo/mtnsX/uDzxY6wjKWK8Mnn6oLmowHFOGW6hZOO/pJQSokh1/zluILXt2Y+PBvShbvgqeeI9u9mHWi+zhVbKhdVc+Dp09N0+jJOGH5RMtxobqBfBmy/aoWakSjxxlM/lpJJ2gudp/+Ag279uLhYd2I3HZLrzz4WDrzE6ajq7Qd5DpZO1uJPYHZM97KkRDR9UCdQTKUY7bp9ZVCJuGkDIMkUaJfPOxIymY/6YyaVC7aA1UiC+KkoULoShPBObLnQvZ6c3k5zMY7FqyKbjBUyTa/fuQwcJzDNMcPn4Su/YfwKod27B02Xwe5yTiDGy2dH6USp8VyblHrwMOeRnWj0pTDtH59FAOwxI3rmHk+NEY+QHhiwINKzTD5tOH+LhAOvT/aDCQJzuJ5ojfxmCmenw24LHHH0OdSpVttR9Nd/g8N6Q27tyJMTzH26FSKzw57GE7Vakg60EGFOcuXY7Zq5dj2RSO1iA16tgEH7R/Eskfj+IxIA7dQFaBlEL3Hl7zVTg5uRqs5M4LKsTZuwcRuaGltyco6f0jBq0bq+gWjlqc1aleBXu2r7AQy/a9+7B2x3ZM2LgMWHccK7YvBI9Oq5ZLFbKjddmHUL10aZQtXsyObcoTypY1Dtn4q7NR1SqUYXt37JDb6XMDGFk9xhjVDkyiIHZwrWCpfCqeCS7MCC3nDNKj8EYqusxFi1dAbBnti9zAoqPbUTRdVhy9fsU9krD2DLLWL4eeg5/mg5vlUKxQIdvrOc3n5rdwoTdx7mwsmDQXfV7tidUfvsvdwSK2KF22Zh2+mz4NS/9YEDABdOrVGY82bogKPPWoMPyhoyfw28xZFsuTB3mTc5l6iQQddGU+4+LsnrbDfTKXlxDiwc3hZrICLRGBDR91NwLIvdMpRSWtvn2ZoNWQ3Fq9a+Ti5bM8q3UYFfm8+UN8nrv7vcfwPpncs592mc9rLN2yEYu30w7fZKWUtzDj3zWYsfZPt6VaPg+6VW+I2hUronzJ4ubd6DSiDlCkis5gkVJtmzbj4ebeTz1ujO8+cBBL16/HlN3rkY17GvKxtJF0nXsdqaggzUHy6HD1BP5dfQLFm9fAk62fRL1qle0Rh/Tp0pmgN3FLYdrcefj28x9JGLj51h9fbh9sWwwyqT/+Pg19xn4MbAniVuXS4fV2PdGuSSMeSeWDReR/7aZtGP/XDHz/xU+GY+H8PyicIEQjeVqu68PadVUyd5913dLC9OaNDkttUtckHlaK16lydJRG6RyfQhICp0XLMk9G84z87taPPAXkBfp26o1WDeuhYukSaNq4DprWr4nneHB53+FeWE/lTF2+BKv/5nDPR8+4cWVzdX9a+jN++vJn88LaPNIOLWvX4Sn6kiHlaM9a4QydKM/H0yWlOLL02MLkdVOROmtJBhCTLORemBtd+6+ew9FF24HCQL8OfdDkk4dQjorOxUckyIB1nAk8rPfhlEkM7zO4yfTh8KFo16wRilLxCZwb9ODRk28/D5xkYVm6hxRBv5f7oFPrljz6VNxc43VUxMifx2PSt5xnmAa91Q+PNG2G3FwkytFRh9VHMtSvOq8cHKUYutW8NefHYHgtufpREkzqytSoUBUt4vhNt1avwkDZWBzhxC2vR4suB0N4KkMbMFo0NunUEguObMfnv33FlwN8hUqt66Fn69ZoWLM6CuXPg5wUZrUKpfF46+bY1eMA5q1Yic9+/sK8prwNSyFP2zhc487e9M1/YvpP02wz7IlOnaicWvSQyth7R44cP8NXcqzEkPHjcG7/DuQrVtoetsnN9Y7mjy1/03urUQSjuKNXv0ZVHn7WAzvpcZ8dZitPo/zx9zy8P3E4sMeYtO3ojg83t5OFyTmfrVy9AUO/GYNFk2ajbIvK2JZiA/LEZMd304ajZtXySMcnuk7xEN73k6fhrdfeszUSuO6c/t3PqMnNt5Hf/4x2TRvQrc9qISfJUElxK7nkR09Rw+woWkK40SE6nFkzuKBCcJTUFapASdoyt5ZKeem9D3GMPWfJt2PsFLhcSmrPwbAx7dYN+ngEvvprLCpyEtdu3daz/wIbGIOqVRyfP9ENLWhyCvCclVblWvBptXqUp0KWrF6L1yb9goRlO4FqOegQFSIMz/Jyv/vAMfb0PSSmSl70bdAay3ZuxZZZ/wDVc6Fohhx6WtX26k8uIVCtYhj3bG8Lv+uBzVQ0paJRh9QmzpiDt8Zz74RbsXrgph578pDnnmMHKYW0jKGd52lIPcL96stv0T/OhDr5y2H51KXcY+mDl595ykamevDazTvQ48OPsH3TCqThEZ+kZOmx4bMRKEmP7uV3P8LXE8bi3IbtXETHmELMS6Uc5Ykm3riJ5r36IDY6Ob57e6jF22zhS/ZMD/ySauS52gixsaUvNiwAqUdK0fs9ShcujNnvjrZXG6VPy5MhVIhgRKRWy4p+li9eHPgUSCjAvRD29GJ8QCa6eXIc4IMxigH1rVIYYymwZnVr8bG1OBKUAoUL5OajBu15zKcBlrJ3jpg8EetnLOfGCztf3nIoUaASUhZKjuNUzudTvgJXiSjVXHsrinfdw/aN6xkOiMbXY4fj4YZ17cnZexyxegBUO3NzeeS18/B36NqeRJ5cxXF8+x58/NYwPNm2Fd1ynmznCN+241+8NnIU5oyfgQotq9mWr5Qx7scv0J6PPugROkUg5iz5B20f64q4mvHIVKQw0kVnwsJRo0h/frz12Zf4evhYDH1/kC3+NBoU5fByVDs6vrp+5jL0Gficea5aAihRhCZsZ3Ukf3lZvJMCLAXXUoaSemvBPHRRmc6cv0jTkd0UJWXoo6TvkiRSKSXhlS4kJVq59rjzN6qES9yP7vlcf+RqUB6j2FMa0JTphTPafdS2cOe2LVCvRhWs7LwR0xYuwu87VjI0zu1ijra0KVIhrlB52/NWcGvb+cMAPSYd1ezWvh29pfzcKuUahSGJVDSxOkb60bc/mH3XMaSt52/jOMMac/mwf322QYtuC7nFjDC06PUE40IcnI/UwoYLx3F312HMnzuZx46q0szcYue7j4l/zcEzPE2pY7A76MBkjs6I+SNHokjRQvj+19/x7pufAAUZDWDH1YNGiYk6be+eOpYc5eZKdkpF8uW30I+i6E56rvPrWhLXr4I4JrxAvlYkc2UAhMjDlbiSNvZdFX07kyWlKFyhZ7uLNK1CRSTwoAGfMuLmkjaH5P0kcJcwFU9yVGldk/sdiejQ4Tn0ePNtrNm0wwQoHNcYtshDZbdt3gRVGDPCxRN2YEH7EqJFYfO41LHYuWI9CmbIhwX0Zoa93JvR3LwMdSQY/ckJq8Pa5Vs3wqRVE1G/PcPmy9ajaXw17PlpMhrzuQ/NeWJ56t8L0aLlE4gvXhbVuO+/9uQe3L10Cmtm/o1GhNPDOjp5OX7a36aMao/UxHmeSb5z8TDmfvwJivFI0qo1G9H92X6o/shDtkVdunhRNzd42bEl162T0ak5wjv6MlyHmdTV4QXnAOyat0xcTuhHVR2McvlhqQCUlz1rFj68zWUFt0tvMXioyK4fU4KWQrSR37VhM5xZupd7EClwJOkqD7wl4uytRHpB13Gen/XsgdqlK8MJc9qqP1Crbit89PUP9pxiunTpsZ1vbugy4DUMHD0EuXIXx75rF3CWOK7eTsKJpGu2dzFk0KtYMWYMo61VSdtdPg7tNowuXL6GwZ98bqcdMxQuhNJ5K2PJH4vw0ot98AsfzCmcn8+wcDTqFP7PPDfcmYe6CzQsafvuaw+tYIDpPjb+OBNVypWieUmgWYnG5BnzKPC+KNK4LA5ePofjS3Zh7ojJqFCuJE5w3fHScNroqnFYs20VOrXoxPhadvM4Za6UJGtdywtdv32H5enFBCpw8nNrD29pTP6EesBkaYjpn0aAFKOoZUbudnVo2w5fzPsDr/Z8lhHNDHb80vYkpGVO0qKhca0aGMJaJ/m8Hu6kwHUXgzU8SEabyRX2CQYQTyTcQIbspRHFgffW6+9j9rp1eIoTbe8xn9Pn5yjkBH2SRzotcXK2ACeVPHXqj3ylU20KldMCo8VKemPDAQnnw+GYv/Iv1GhXH7c4x208vhdDedyo/3NdGCKPMmVIyH/MWoAez73Mo0p1cY2ORTR3FKMzlsIyPk5XkUHBKxypmhP/WbsZXbq9QG+xFt/PkhL7ti7Fl19/Yicob3E/428+Br5x2XI0bNYUi9bNw+PNm9lhBm092GRO2iQXLRrP8amvz+f/idZdWjG0xBObNkopMGlMPzafuAFgeyJ6PZMUIU1F/ophDZFUXIv8MWs+XuZLV5YunobaVSvasU7ZSZ+kPiHT20S1qyhXT3VdmyrVlUsBHTYKzRxR6dq0ieUBZ4XgRaCH1ihVME6v2sidI6sdA5JTIaaFVTTrSWDl6ZFpt+mlOjRxCjTSndWTUAqxK8qq0IhwiVZL/FVZFo5wHdkxpCzQ1oBkoXbEhU7S6/UZmiMUcL3Ah0cFbJwRTmVyJjzd4lfeqJ7DX7lhC+rUa4tPR75lbr/ocSt0icgtMWSOdK3kvCxeOGW4XyEUs9rLkIkqVTTegNcwWFeDz2H7XsBKJlihknA1bF3ypIlkJzj9hrwLMUN4tWOMqS0yIA7FplelcCpJwDI5uncm07LNhc7BsIvy6X1bXQlbdlhKkjnVI3FyMeUx6jFq8Sk6hFmCEW5Nsl7Jqq+3SZi4eW28UQbynoRTFXOyTSUWW+fTYlBtOHIlXJkrd0Jm3Ra670ylisQb7epgvi8bd6rECkYP69gcIuHo40LDrM1rpyBuUpFYrZJrtKmNsXNn2WMJisfY4iZApgbFiL3fSvgdemUbQ4p5KdJrhFIIIl4C1lNSGuayszKBJgTW0a8UlGgweucJH+LnCNJzHiaRAK97VI4jlXSoh0tg8gz16wTEl6iRVp1eVz3RoLicRqKUYd4O68pMSdFqRwcXhEOKoFRNLor+Cp9OncQwhG89XDhYrlGpetbBrJLky7AS29Uran+aN4fzZlXk46aX5GNKYLmlQM6CdylYh/gM12udQIKahkS7XR0aNDaztevfA3RbqwYI+BMg1U7euYtX6Hb+y97IlyKTKfVEMVeOsR+FYXbs2c9zsWe5SMzNmJHc1dsGe+jYKT6OdsxWsUIsM6InnOIypaMg7mM76+36d795KdX5RjfZZynjIidz7YFLAbWrVaIALvLtQjt4XZmen0YD16d808RRRhoa1apmezaJ7AALlq8h3rvm3u7+9xDO8yBF5bJ8DwpNzxUewluzaT23B87aFm1Zhl7kWsuUriXuY3zmUc+la1Te4IIvnm/HK1GkAB+PCEweG5U89SYHyWrHnNX4aPgQPiKRzvbepUSTt4gjDkuSoS74FTJZ1q+pdQHr4zQpKDdaqpYvrRvM5mQms6U5RKNEShS8lHCEofPm9Dj+m04d2Wym44WPP8W6Pxfh6Re74Yuhrxs9MimrNm6BHgaNTBVb1cH4995FCfr7C5avxBuD3uNebByOTJ2DHFloUsjYms3b0KHjc1Zt07oFFOI59OjeH2O++4xCfJRe2A18/usETP5uEjasnYtK5EHPIbZ7tBsXmdW5sq+Oz8ePx4RvfsP+XavM5r854it889mYSFKwfMl01KpWEb9On4WxI759oOz9T95k+CXeOpfZTZZqlGlenLOMHhxTdT7962yF87ykC1OKlUZ8scCZLMtzgnXFznZKYlrYaJtTr0t96dUeGPXhV8aUjttEIpVylKfU77XnMY8LrOl//mSPPOuRZu0/rzv+L/LWi8fa/XvM9OldVertOomoNO7nL7F142Ie1h6KTXylxS98cabMqI4JoWJauqcXsGP3vzaCZOoWrl6NmFoFuDLVqErBPRdeMx3lppd6nDbDTl86b7uEh44epzRSuKOxLHuBgcy0DHNk4ahQUoxp+559pozBb7+Cw/+uxYy/frWybyZNomd5G/mCNdmEiWPsdR9zZk9E22YNba6SGVOH953z0LETGPHBl3j2xac4snOaU2Hl5McNh2B0hDq/k7kpRJiCYl5qPnG2U3nSpmykTFLT2jWNwJmLlpop8SZOmWpMo0mpWKGCaNKkHiOgDfhekJr0TqJ4DOcwjxQdQ90S1bFrzhq+xPh42DmwWkB+7pWXZYzp8VYtGFfKxUN6/1pPk7CxnYcnbgCLuD8he659jK95sDtfLAXKw/lyJzNn5k5W1Xzc3NpOId2lCb2IZesW2oaUwva0bTykcNZaK8BFmjyj65zfLJEB7asr5cmeA/lpphrVroYvRn+Edo0aM9d5TiqvXqEcatapwW2BmjSteZ1DwnxJUaZM8pq9xI2O1g3rO8/OrIkTt8mbojJZB+sWJ/dgYSitCkk4ObOlfAlaHoMmTb0HpFOPDhjy6rsMZR+1ULJN7k7l/HY49KjAhZNncfzkGTuFIuFs0CMNjFN1bdvWmtm6e68JVrh9PTFDW2STOU6f5ItheHST5bL3Mq5t67fDiO++MN9+B+cUXOTAKVjK8Mmj0lzXo2ZjLJ23gHs41+214jjGkAVfGrCRW7ja1zl26pTB56XyJULvyMiJKJQvn5W9MHogJv7+Fx2PW3ixZ1eOggbW1dQRlPSs/l5GkHfuOWAdxuhmvsrlfiuoqWcr23R7hJ2zAGV3y+qZRbE+6+SkexO78si77gOVBdqSQDyQUOhepDBPz81piLdv1kQlGD99Jm5R0CZQw0+EIpjWZ+ycP9H8+d7IG18FGzmpypt5b8ZkPFazHUrzqGfFhx/C7FX/cD3jTtL70yEbtm/H37Pm4atfuc9AC1OvclU7Mak1hEbHo42b85AYX4+0Yg1mLVliz55YqIX0SLApuVCsoEAnz+ppk2nX/v1o/1xH9G//FP766U97PYcOI6B6Qe65Z7JztyakjBxEXCgWzJcLM2eO52Ew7gryGccOLw/AjNkLTejqwaYQtt+8/+MoXqYOSndoykWqezRc3pYUIwdj4l9/m4web9bMzhUoT6I0cVJWUoI+flSoH4sO3bPfmchd3xZURBKAEWx5zgUuy+fmnnupi73LtmX9OvbeKL3k3iW2ep0xm4xZULFIcaSlZ6VzrSdPn6O5OoKG3V9EDr7svmODpnxUeijODBqEOJ4ytDUIEQz8fBhwmBcM1fTgs/B6JPoeF45ySZWKFsiLtzu/xqd0XwAK8fTIN79zFLoebwCE0yhW2ssRvHjjJrSuXZshEeeQ7GCP3n74EHo+1MCeT1Qnk7emxyUkIZm9ZnUfwqHFa/helJXo9cVALH5kLn7k3PYkn0+RPEBW3uw7iGF254br3IGshDqjjhat2bQd7731KTp2b28bdfobJZKw/pkSdEc0NjK9vJnhZW2cSuj6yGx5BbCOU6MhoG2jrdMqVdu6Tz7ysErx4Xc/0NXUgTeufkmQj+O0rdcIw98YhBlff0F3shT0FKrSnoMH8MP4ybBeynt7VI4myr8n5bcPx+LPP382U1Qwd26bzNWmXGelNByhNStXsutqZWpztBXh6HNzgAmLPTFPzhz0xjLQG1yKBRP/5pmsQpwTstnm0JR5c7nPv4hHh0qSZreyT6H3LtGimGnkilzmNhejAs890Q6bx81FhjrF8PQ3n9rqPS0nfqVOrVtgQK9n0P2JR227WeY8Fd/5KDd8xE+/GIzeZy+LojITtuVSpPyVnE1W6vA+n3mSuSnEFmW8U0X3YYnUKAhLztbJ1dUiT2+m/mzU25jLP/cwbc4iIncnPzy0qspvV3XBr97M7dKiwOcLZ/Lp3H74ZtVi83x0TOeu1iKatJkKc3dR0dbCTSvj9ff45BTP3moP2q/w7c1AHKFK9XmcJ0fWLHawTfdeIfr7Iu0qNcIPy8bZVrHOjWXgKO3cuDMmLf/NJviitOsadOp8dmKSOpXtlynM+lgHrFy/BSk4uktwW7dJ0XLAyaNmivxIVe/WiFAn1HpD/GqfZvq8xZjK46ZD3xvIzhJvvEtmYSPsDbUAABB8SURBVLkGAqUW2LR9ycz5OUiI3Bxv2tGgIoy482pjToDCNGpxJpap1zavXwtNOzXH8z1f4X75Tj4PktryrTrxyd6KGD3r/fX8X1C9ZB3s+XEiLp7aiT3f/oSqVergs9m/0DVNsL8Nono6jqmH/fu1ac8bxhp5GoSb2Ma4yjUX6U8XLVk4Fc92bEdF8YhDQKuYlh1Py0VbhWKcR9gHmtdRQC8D10gpGdbn5M/NxTxFynMU5TQzaUoUYiYJws4QrNmDT378AX8xEPnNLxPxx/e/o+djet1tejobLuj549TpGE4eho78Gov+Wcedx/TYyAdeFY4v37I62jZtaB3SOQwi0FkedQApL9SubpicQ0U4lgdne1nAG8cbv2lGLAV5OgPhyjSCdBzyttnggV27YB7/HFHtIa/izG+/mzCtgUBKEsS+Q0ftkbjGHWrY3wVJTmRpOHm2rFEb6/5ajoP01/X4sEtsl67oQxXL2+2E2XPRolE9W2gpQzSoU+iNDmJK5kCmRkn36rFykYsVLmR5VUuWtlW1eCsZH295NQoWN6WaKWFdvS9FSQu5WlUr4OPP3uaf0hiKuRNmW76O/Azgm+Zs84mhHqXh40a5Q3bsNEW/H8kXsfGF/RzRSm9378FzBhnpoSnyG8wbJngnQZLyQHI8OXNl8Tgf7Y2EMg36mk6J4imkWWlaglGMaDa3N7s/O4Dbk73wRp9euMgRoWfIczBAp+F1kQ/cnDt/GXFcI+iop5tINXKu4gwPxuXKpmfuGJrnxK8DAvZeLAr6GM2VzEIBxoAuck9fEVj9kRXhtm1SdhpFlYVfj9Fl4+pdQtOYvsrDd3IkNJoUyVUvus4wh/66jkagnvPzUemTZ86bMvTyTj0PqF59hC/Y1MOuip0VyJuLR1D1TuA7XFReNhPpTuK71wrqcfBRP/yMLz752t4L34Fbv3r9n+/eJgQKV2J8UBdSAnOlLMkzgLFDDjaUAo08WClA5+oEEOEf4ZIN/m7SNLw/dARDzO/glZ7deBTGhdRlG/UmCC0qxZDWClK22lOe5QdeiEaT3FsnbD6oT5uupBP4im1JCIoY+BC70Sk8DNnINPoXjqmO7hXck/LVrpIcBx38kyl1IXA3oQpOPdlwc70jfrSP4Xu34m3mthKHa8sFR+19LjSno3/6DS/1fh0vDuyJfs8+yccvnOsr2Si5zm0Xdu/NFklnckrxMhesc3uD2gIOhkJYo4ZYX25YSaMhpOxNyfiEyVN0CY/znO5AntyQ8PQORsVzxIgEoveJqDE/eelajGpO8CbHrpnvg286oqruoNCNypJuuq0A1fUMiBaViR7hUZkoVbsyq2pP+FRBrnUC8zwdvk/K6VB9Tdgqkz233UVeq55GofKV1JZ5k7yXmf2RZlrKePjJh83jknMiXv1xUYnTurQdsaKsiEaYNAqNVk0NDkiAdm0KcdcBm6zlmneVBe8RRcIZHhaIcf0Jiv60s+euXrYXziic3fWxVqZtPTUrX18mLjKZACMy1KtDiXiNqYAkrzRJKMgKgXo8Pl+/olf4xIflUyDi6oE2AgxShME4hkJ1VRyqHwhBOGxkcwRpi7d3r4F8uc5DeIuvQI/jbqDC+6LbgUuRrhG7t0tmBLTo1gYAf03h1r4FJAxSxSqym/BVUBZgtCeNfCtBkZiUUrSv/u6LL5ir15PbpApHP92xDYe5MwdhYTjsvg39uuRz/L2I53WYm0C6QY0IOsI4wlVUN5yvG3cn5sNqdaPdJCd8AYyXZGR9zTkyqxwyPPwwi4cfXkJ84woYPXAg9P56OQUyd07IAa7wjzGlTumFL9w2SoxF3WnU8KGhfi8+M4x3znR4gnhPXPblfoVZ99J68FF5kJQnE6T9hJrly+PkTZ5E/2A0YhmeqMBjpYqkmgmR+QiU7uvarwndWrLb8JXAdRd8fIHlKVcZFC9p84w6GtWOilSgC36pjr8OeFGJw68MXevDL9bzfOpa844WxDd5yEPvANPIqNq6Nsa8/hon/ZymjAdGtEwR8XjluGb9iHFUu7WfM7+uWZpMNu/e2yvClQJG3aUIs/9GnMoimTZ4VbFqbiWviVGHIqrzAZmEFPcYqucBO75ztzwfqtEet5QmIg2PR6DfiHYjs4PWQz/WWiRsIFjRYDhUJl4sw+MNbjyPvgEPE7CuUWOi8vj565891MvLzvIFaR/wXSzvDPnY5oxP+vflTmqOYGRI+J4EdQbXSUSI5rGATBFkrQdNmhxsXhVMgCD0dwy9kExghtLqRggvhMYV6NszSYRqSkxp0lMoRX9iQkduPhg2kluYNTD29TcYUyrJyZWTPBVnJswoDaP7P688twLwhHsmHqgUIIyEt/KIhnhJKsPCD/Eg3PwEvMgxUJRAp1U28T2P/T4djlXcXOs9sAee79Se1iCdrTW8KQ7pl/j0T8InKhO0ZBsmyQnfy1sFglbjyjOFuAzRosWVIm1CFq7ohp5yHc1CYgjVoBaB/DVkvBB6uaYa4tSNvT26V49X1SK++fYzCxhm5ijSPrV5G/JurFRfjhEi42VAlf8NwQQXVilc0zNmdIkKkSU8TA+MSo9PRUET1p4DDOpp1Z7aQvjT5y2y+ULFI/n3px5pUp8Tu3tLkg+lGNXWll0JlMnRoKsQlbzwzbvGXckDdNofliQeN2RcBRPuA5WF1iXHo0PkFBUoJ2DOkLPYBQX1l9q4l853Ir7FA27rZvyDh7s8gkHPPGOPHOgkiFxJuaTebfXthIUVyglzE9BmVARC95wGZDghOICAKeIJFVqBQ0wJKdvcWXYOFyi9j63cmRwx7mdM/n4yijapiE9f6GM066yaePNzgCExHJKDN1fC6Dq1L7ff4CtMhmPEdxiTe3ilToT854Ed9SLcI3eXvjysVTf8de9iMuEe4WM0WtErEjp9/iK8+dpHRtaQdwdBjwPEM6BoiuF6wBZgxBN2cz0HbNULPqDHlTDfkRcWtiMzGB2RPHlAR5+EoBwpQj1dC1FdH+aBi6nzFmDwgHesiTfefplvw27CA4KZ7C0MosPNCxEjwCteNTQECOOErIyIazXIFKbkAbIJSWj76wiEcL3dcPnOZpX15WThEVvrquALXONhQKsnKCnE/2obVz1I+9YTZs7G+DETDe5DvsewOf/IZHyBfPYOeTs4batrMU6QkCIMnF8BV/7WWtCNmOCP4CNoc2BWYPlODY4XmR69/lwbbYePncSCFSv5+MXrALdY2nRrg2fbteEDP8WMDm1g+TVP0JpDzW/fwy3f1lvB6CAdQctGV0hJEXS6Sw2FgPzwCGEdy3QoPF8BGPn0VYKaaj1IqiG4yBHm5OiEE1munqjYk/5i87jpf4X+Vnr/N15Ei7rcheMeR+ZM6U0IMg1yOdVznbwdphD5rhFHWwTzvnOFqBLpTOJB7qkWd3quRS850KN3ehDonTEf2y5lZR4K79fhcdvH0ZawreTZeGiNYSy5yID0/oDyjQbKgR3P02BN68uRLjJM0FbXMh1xHs49sENgeR6u3AFYRVfLtCvedSumXGNOAcywAtM+u3SoiiFw8H6kiCYJVz1TcSH9xeZttNV/zONfyPlhqtUo0qQKXni4DaqUL8PH2nIhE0+cKN6kEIYWVrYPwUYstM1f49N+HT3WcUiSLbLkMJA+9WzB3WZkV0pQkHHDth18y9tcrJy20NrV07RPtWxpipDrrpiawj6+rklFvPokRnmvHOEOK8DlKM/XsRxPq9V3pb7c6np8GiFCqXuH2glcbVtzAREShJJjOICxHMvkl8cREGI5DsAIcpeuPhuTkhTvkmupSKz+nJ02rH5ZsgCHFnIzQ6lSLvRt1AaVuJehw3WK3uoPc+kEoZSkgKPFqyQYNiIliQ8dilAgM4nhcp2Q1zt4dcBt6569GLdkIZ8v3OzwP1QArzVqzXB/BYbsC9hxpFs2aSsI6pQZ4ouIjXdXU4KwK+uInkHlBbz5eVDlDkY0OrmZAgI8qhrCy3L7G1TWg3UTVBCsbyOoZz8sDhQX0GOqdBD/C94vijxBocrCrx5PAUp4CkjKu1Hc6yLD7Pp7g3pWfTGfkpo/cV4kCdALAuoVKIo8PNoflyED5x39kS4X8VVgT2ucK3yLxMlz57Ht6GFsn7uSmgqjqNSqBlpVr2Vvv9Zjdlm4dyHlKgKs0zGSgW2vuv7tGBZzupe27Tq4lECCZEIOyh8wWV5oEbBWRYriRRiDbqSQ4PR7gNe3ZICq4JNVDJCGBOwLPXIHZDisMYPnlftv0AIRKWw6RJBgZY5kp63Xc0tYpk3PduvxtNM8kXiMx0H1RrbdRw5j3mFu/e04Yn+P3ZPw//2WS4uahSuhdP5CfHKJ70jJoz8YmdUWdDqYp7lE7rafp1TfR3xFj5KsQrj3ujwjWmV2G8EHGQvpi3x7GTmRuEK3Fe29NCHxLTl8ElegEHUhq+oICGO2ZvXlG3DXbr7xxAqtv/aw+nXJSq3c41BLfl6x3mTsuaHtA5jCJwFJcFKUyNMIUnhGaxeNBIVi/B6KyvUKD03Yek2UzJo8O5lEmUYxK7a0RyIlKKkNo9v4DQtRdCp591bkuRzPp+4cwgfznZxU9/+Sh+hwybXnMDs6VJTSNe4ydK2eaROZEaUeQOQ0LyLA5hHDKHiHVgCMKJvClOOzTfgPZrBMpRK8ChwpRGrMunrOXHiByMNSL/aDWzD6+4HR7OEZ0gVMkBCPz28qiQeNOM0pijwkKYbGuqqvBZ0XtPHgK/PXqAvuJVBHpuWKQVaOlMEDpdaea8RxGclngIGtK4le1ZXnprWbZQZ55C+kyRAhajsgzqpRHN4GGwdCKWIJIwKDekIbictfh35ZrlEhCpQnIpUCeh74dR0gKBSsRohuWV8M6BXoLkP1hSGSZcG7Yn2Lab2uUE27fBYGNAc/D9ASUTUEZxUJrPaFzyejXfeGiL9BkeWHvlymyYF5Ji/Ci0dvJTx+1bcNKgGpWqgSr53APSMqFUEBKbzVqFCG6lh9A1GtMJCyBGOg/Db8Em4IkePB1xB4gMbh9bgCeMNnQO7KJl9eysyp5xuYviKFpt7ENYfjzdHnautbNDllq7LLUQPiz9FrnUg4iNPqeX4FE1wbfNCmk4VrQeRH8uYl4WhViafV/wYKEUK1ZtqzG5fhFaWKriyi93liNPFRGGJI/0S2I0LfRCraLCMg0lD7TJdndxJkUGbK5rXxaGgcnKMh3IanSdVs7tGFUiQuL3Blu0J+O3zKMCFJ+OLBSgI6jI/wtdUIeDZ6WVN0ekVbZeGJgDH2hYIVQrIM6DHedCyOdawsIMm6lUMaItOQWh5xCV+YP40Gh1wEGIwwK9Na4DV/NQmHFRP0LLEeNO4RigYTqkMqlAGu4Nc4CsyiYJgMG9vw9IXatvYNxL4c3a6Oy3DC8g6C8qQE0SBcno4QKXbhyoxOhyT07ZwRR79vy7dm+ASpDKMrkIGnkbgDdlju2jDE/LJuYYLy9a2EmFjDMy2CVNOItlYcIQbDEkeQgowu39y7oHGrYwj4RUCHS3DBnBLU9205XPp2uIw2McB7h8ZhcLQoM3xvdQP6lKuPHJEQrO714Zer5e6ZFeJV18p1uHSpK5ciLpkd4RKz2NrzAg9osJqqFFSM5MUwMt+KPA/M/H8vb/4Ol7TiPgAAAABJRU5ErkJggg==;" vertex="1" parent="1">
          <mxGeometry x="100" y="20.97" width="100" height="100" as="geometry" />
        </mxCell>
        <mxCell id="2SEQ9JCuGxX66qTga9O--84" value="" style="group" vertex="1" connectable="0" parent="1">
          <mxGeometry x="772.34" y="554.8" width="265.65999999999997" height="190" as="geometry" />
        </mxCell>
        <mxCell id="2SEQ9JCuGxX66qTga9O--83" value="" style="rounded=0;whiteSpace=wrap;html=1;" vertex="1" parent="2SEQ9JCuGxX66qTga9O--84">
          <mxGeometry width="235.33000000000004" height="190" as="geometry" />
        </mxCell>
        <mxCell id="2SEQ9JCuGxX66qTga9O--29" value="&lt;h4 style=&quot;margin-top: 0px;&quot;&gt;&lt;span style=&quot;background-color: transparent; color: light-dark(rgb(0, 0, 0), rgb(255, 255, 255)); font-weight: normal;&quot;&gt;&lt;u&gt;Scheduled/Event-based &quot;push&quot; Messages&lt;/u&gt;&lt;/span&gt;&lt;/h4&gt;&lt;h1 style=&quot;margin-top: 0px;&quot;&gt;&lt;ul style=&quot;line-height: 100%;&quot;&gt;&lt;li&gt;&lt;span style=&quot;font-weight: 400; line-height: 100%; font-size: 12px;&quot;&gt;Crop calendar advisory&amp;nbsp;&lt;/span&gt;&lt;/li&gt;&lt;li&gt;&lt;span style=&quot;font-weight: 400; line-height: 100%; font-size: 12px;&quot;&gt;Daily weather forecast&lt;/span&gt;&lt;/li&gt;&lt;li&gt;&lt;span style=&quot;font-weight: 400; line-height: 100%; font-size: 12px;&quot;&gt;Pest/Disease alerts&lt;/span&gt;&lt;/li&gt;&lt;li&gt;&lt;span style=&quot;font-weight: 400; line-height: 100%; font-size: 12px;&quot;&gt;Field monitoring alerts (&lt;/span&gt;&lt;span style=&quot;font-size: 12px; font-weight: 400;&quot;&gt;Satellite)&lt;/span&gt;&lt;/li&gt;&lt;li&gt;&lt;span style=&quot;font-weight: 400; font-size: 12px;&quot;&gt;...&lt;/span&gt;&lt;/li&gt;&lt;/ul&gt;&lt;/h1&gt;" style="text;html=1;whiteSpace=wrap;overflow=hidden;rounded=0;" vertex="1" parent="2SEQ9JCuGxX66qTga9O--84">
          <mxGeometry y="10" width="235.33" height="176.76" as="geometry" />
        </mxCell>
        <mxCell id="2SEQ9JCuGxX66qTga9O--115" value="event" style="sketch=0;outlineConnect=0;fontColor=#232F3E;gradientColor=none;fillColor=#000000;strokeColor=none;dashed=0;verticalLabelPosition=bottom;verticalAlign=top;align=center;html=1;fontSize=12;fontStyle=0;aspect=fixed;pointerEvents=1;shape=mxgraph.aws4.event;rounded=1;" vertex="1" parent="2SEQ9JCuGxX66qTga9O--84">
          <mxGeometry x="227.66" y="-14.8" width="54.8" height="54.8" as="geometry" />
        </mxCell>
        <mxCell id="2SEQ9JCuGxX66qTga9O--87" value="Multi-Agent System" style="rounded=0;whiteSpace=wrap;html=1;" vertex="1" parent="1">
          <mxGeometry x="340" y="400" width="120" height="20" as="geometry" />
        </mxCell>
        <mxCell id="2SEQ9JCuGxX66qTga9O--105" style="edgeStyle=orthogonalEdgeStyle;rounded=1;orthogonalLoop=1;jettySize=auto;html=1;exitX=1;exitY=0.5;exitDx=0;exitDy=0;startArrow=classic;startFill=1;" edge="1" parent="1" source="2SEQ9JCuGxX66qTga9O--68" target="2SEQ9JCuGxX66qTga9O--16">
          <mxGeometry relative="1" as="geometry">
            <mxPoint x="940.0000000000005" y="170" as="targetPoint" />
          </mxGeometry>
        </mxCell>
        <mxCell id="2SEQ9JCuGxX66qTga9O--106" style="edgeStyle=orthogonalEdgeStyle;rounded=1;orthogonalLoop=1;jettySize=auto;html=1;startArrow=classic;startFill=1;" edge="1" parent="1" target="2SEQ9JCuGxX66qTga9O--16">
          <mxGeometry relative="1" as="geometry">
            <mxPoint x="890" y="560" as="sourcePoint" />
          </mxGeometry>
        </mxCell>
        <mxCell id="2SEQ9JCuGxX66qTga9O--107" style="edgeStyle=orthogonalEdgeStyle;rounded=1;orthogonalLoop=1;jettySize=auto;html=1;exitX=0;exitY=0.5;exitDx=0;exitDy=0;entryX=1.019;entryY=0.514;entryDx=0;entryDy=0;entryPerimeter=0;" edge="1" parent="1" source="2SEQ9JCuGxX66qTga9O--29" target="2SEQ9JCuGxX66qTga9O--9">
          <mxGeometry relative="1" as="geometry">
            <Array as="points">
              <mxPoint x="700" y="653" />
              <mxPoint x="700" y="538" />
            </Array>
          </mxGeometry>
        </mxCell>
        <mxCell id="2SEQ9JCuGxX66qTga9O--111" value="" style="endArrow=classic;startArrow=classic;html=1;rounded=1;" edge="1" parent="1" source="2SEQ9JCuGxX66qTga9O--25" target="2SEQ9JCuGxX66qTga9O--16">
          <mxGeometry width="50" height="50" relative="1" as="geometry">
            <mxPoint x="400" y="470" as="sourcePoint" />
            <mxPoint x="450" y="420" as="targetPoint" />
          </mxGeometry>
        </mxCell>
        <mxCell id="2SEQ9JCuGxX66qTga9O--112" value="FAO&lt;div&gt;GAEZ&lt;/div&gt;" style="rounded=1;whiteSpace=wrap;html=1;" vertex="1" parent="1">
          <mxGeometry x="359.79" y="70" width="60" height="40" as="geometry" />
        </mxCell>
        <mxCell id="2SEQ9JCuGxX66qTga9O--113" value="etc..." style="rounded=1;whiteSpace=wrap;html=1;" vertex="1" parent="1">
          <mxGeometry x="659.37" y="100" width="60" height="40" as="geometry" />
        </mxCell>
        <mxCell id="2SEQ9JCuGxX66qTga9O--114" value="" style="pointerEvents=1;shadow=0;dashed=0;html=1;strokeColor=none;fillColor=#505050;labelPosition=center;verticalLabelPosition=bottom;verticalAlign=top;outlineConnect=0;align=center;shape=mxgraph.office.concepts.clock;rounded=1;" vertex="1" parent="1">
          <mxGeometry x="970" y="509.79999999999995" width="45" height="45" as="geometry" />
        </mxCell>
        <mxCell id="2SEQ9JCuGxX66qTga9O--122" value="&lt;div style=&quot;line-height: 100%;&quot;&gt;&lt;font style=&quot;font-size: 7px; line-height: 100%;&quot;&gt;Agent =&amp;nbsp;&lt;/font&gt;&lt;div&gt;&lt;font style=&quot;font-size: 7px; line-height: 100%;&quot;&gt;AI with specialised&amp;nbsp;&lt;/font&gt;&lt;/div&gt;&lt;div&gt;&lt;font style=&quot;font-size: 7px; line-height: 100%;&quot;&gt;behaviour and tools&lt;/font&gt;&lt;/div&gt;&lt;/div&gt;" style="whiteSpace=wrap;html=1;shape=mxgraph.basic.cloud_callout;rounded=1;direction=west;opacity=70;dashed=1;" vertex="1" parent="1">
          <mxGeometry x="242" y="410" width="98" height="70" as="geometry" />
        </mxCell>
        <mxCell id="2SEQ9JCuGxX66qTga9O--125" value="&lt;div style=&quot;line-height: 100%;&quot;&gt;&lt;br&gt;&lt;/div&gt;" style="text;html=1;align=center;verticalAlign=middle;resizable=0;points=[];autosize=1;strokeColor=none;fillColor=none;" vertex="1" parent="1">
          <mxGeometry x="70" y="500" width="20" height="30" as="geometry" />
        </mxCell>
        <mxCell id="2SEQ9JCuGxX66qTga9O--127" value="Multi-tenant&lt;div&gt;&amp;nbsp;with configurable&lt;/div&gt;&lt;div&gt;&amp;nbsp;data sharing&lt;/div&gt;" style="text;html=1;align=center;verticalAlign=middle;resizable=0;points=[];autosize=1;strokeColor=none;fillColor=none;" vertex="1" parent="1">
          <mxGeometry x="918" y="70" width="120" height="60" as="geometry" />
        </mxCell>
        <mxCell id="2SEQ9JCuGxX66qTga9O--128" value="" style="group" vertex="1" connectable="0" parent="1">
          <mxGeometry x="140" y="241" width="98" height="118.00000000000003" as="geometry" />
        </mxCell>
        <mxCell id="2SEQ9JCuGxX66qTga9O--27" value="" style="shape=mxgraph.signs.healthcare.brain;html=1;pointerEvents=1;fillColor=#f5f5f5;strokeColor=#666666;verticalLabelPosition=bottom;verticalAlign=top;align=center;rounded=1;fillStyle=auto;fontColor=#333333;" vertex="1" parent="2SEQ9JCuGxX66qTga9O--128">
          <mxGeometry width="98" height="85" as="geometry" />
        </mxCell>
        <mxCell id="2SEQ9JCuGxX66qTga9O--59" value="" style="shape=image;verticalLabelPosition=bottom;labelBackgroundColor=default;verticalAlign=top;aspect=fixed;imageAspect=0;image=https://www.svgrepo.com/show/306500/openai.svg;" vertex="1" parent="2SEQ9JCuGxX66qTga9O--128">
          <mxGeometry x="10" y="52.00000000000003" width="45" height="45" as="geometry" />
        </mxCell>
        <mxCell id="2SEQ9JCuGxX66qTga9O--89" value="LLM&lt;div&gt;Provider&lt;/div&gt;" style="text;html=1;align=center;verticalAlign=middle;whiteSpace=wrap;rounded=0;" vertex="1" parent="2SEQ9JCuGxX66qTga9O--128">
          <mxGeometry x="30" y="88.00000000000003" width="60" height="30" as="geometry" />
        </mxCell>
        <mxCell id="2SEQ9JCuGxX66qTga9O--129" style="edgeStyle=orthogonalEdgeStyle;rounded=1;orthogonalLoop=1;jettySize=auto;html=1;exitX=1;exitY=0.5;exitDx=0;exitDy=0;exitPerimeter=0;entryX=-0.001;entryY=0.422;entryDx=0;entryDy=0;entryPerimeter=0;startArrow=classic;startFill=1;" edge="1" parent="1" source="2SEQ9JCuGxX66qTga9O--27" target="2SEQ9JCuGxX66qTga9O--86">
          <mxGeometry relative="1" as="geometry" />
        </mxCell>
      </root>
    </mxGraphModel>
  </diagram>
</mxfile>
